<svg width="1304" height="1273" viewBox="0 0 1304 1273" fill="none" xmlns="http://www.w3.org/2000/svg">
<path d="M256.568 84.675C264.343 84.443 274.831 83.699 282.423 85.01C290.301 86.371 300.428 99.809 306.742 99.62C311.303 99.483 329.911 109.968 331.802 112.201L331.766 115.023C334.908 116.288 334.697 115.908 337.662 116.005C350.281 116.422 356.952 130.739 369.521 131.782C375.473 132.276 394.202 148.471 402.045 149.354C402.928 149.454 404.739 150.507 405.534 150.991C414.125 155.259 467.914 186.386 470.647 186.607C523.041 176.045 580.303 168.023 633.266 159.365C661.459 154.757 713.309 145.589 741.619 144.797C745.449 144.926 749.009 145.076 752.829 145.374L753.459 146.926C750.399 153.743 735.629 161.185 729.299 165.42C700.719 184.284 664.349 207.237 680.349 247.653C685.209 259.732 692.419 270.395 698.079 282.088C720.879 329.153 751.639 371.31 776.819 416.96C778.479 419.961 785.059 424.089 788.179 425.578C819.429 440.521 847.569 456.697 875.829 476.857C903.399 496.518 936.549 523.762 968.499 535.104C970.509 537.869 969.879 536.974 969.849 541.133C968.999 545.562 968.299 549.196 967.059 553.576C958.539 589.022 957.639 603.316 961.199 638.653C965.189 678.124 1015.28 799.534 1004.91 831.794C1010.35 837.084 1010.81 830.354 1012.81 839.174C1013.55 842.464 1010.54 846.364 1008.58 849.004C1006.21 850.384 1004.86 850.024 1002.11 849.884C996.229 853.714 996.889 859.204 996.679 865.914C995.329 874.614 994.719 877.794 986.949 882.264L983.679 883.584C977.899 888.704 981.259 909.424 975.179 913.894C969.059 913.094 969.639 906.004 969.679 901.244L969.279 900.744C968.529 910.364 968.099 922.274 967.199 931.494C967.419 938.114 967.709 943.034 968.459 949.604C968.629 960.134 958.799 977.924 953.009 986.534C944.939 996.834 937.359 994.164 925.439 993.034C924.189 997.304 924.989 997.074 922.179 999.504C917.549 999.284 913.719 994.514 911.579 994.924C907.079 995.804 906.949 998.224 900.869 995.034C893.649 991.244 887.419 999.094 879.259 1001.22C873.319 997.684 882.409 994.324 865.879 998.484C863.019 999.184 860.179 999.984 857.369 1000.88C857.039 1004.54 864.419 1008 858.649 1011.75C846.769 1019.48 831.039 1015.09 818.269 1012.49C817.029 1012.24 816.159 1013.77 815.299 1014.84C811.719 1013.08 805.179 1009.21 801.629 1009.48L798.289 1011.75C795.809 1010.55 794.239 1009.14 792.089 1007.45C792.449 1005.31 792.389 1005.45 793.739 1003.74L784.369 994.854L782.629 998.804C779.819 998.144 777.109 994.744 774.919 992.494C772.959 992.104 772.369 992.074 770.419 992.064H768.579C769.519 989.914 770.419 987.754 771.289 985.574C759.709 983.794 756.969 982.684 748.699 975.194C749.989 968.334 753.339 957.554 755.289 950.514C749.399 934.104 745.959 924.284 732.589 913.024C734.169 887.354 741.209 855.334 744.879 829.444C749.269 799.614 752.959 768.334 755.509 738.394C757.759 712.024 761.759 692.414 750.879 667.354C742.639 648.353 739.999 648.884 722.089 657.289L722.259 666.364C721.329 708.604 721.949 752.994 721.949 795.424L721.939 1026.66L721.969 1101.67C721.999 1109.01 723.209 1142.67 720.949 1148.36C685.589 1237.41 661.449 1237.68 608.944 1160.11C597.792 1143.64 575.094 1120.16 564.385 1099.43C547.52 1099.42 510.67 1110.9 492.501 1114.72C412.575 1130.98 332.923 1148.56 253.577 1167.45L182.039 1183.66C161.328 1188.51 128.393 1202.45 110.548 1186.23C89.9709 1167.53 103.573 1148.74 111.418 1126.66C124.232 1090.62 138.02 1054.93 152.769 1019.64C159.578 1003.04 162.611 991.234 170.586 974.344C172.523 969.584 179.929 948.934 179.399 944.384C179.205 938.324 186.141 917.584 188.332 910.124C195.068 887.394 201.491 864.584 207.6 841.674C209.931 832.994 215.914 812.554 216.383 804.134C217.541 783.344 205.27 755.774 203.322 734.464C202.304 723.344 202.664 711.574 202.557 700.504C202.294 684.094 201.947 667.694 201.514 651.285C200.701 646.137 187.077 623.355 183.574 621.306C182.799 624.327 182.077 627.362 181.409 630.409C178.941 631.051 179.306 630.886 176.969 631.973C176.507 634.376 176.112 636.753 175.849 639.188C174.664 638.147 173.993 625.377 172.977 621.77C169.59 631.218 167.556 636.881 162.847 645.67C174.893 648.896 166.787 659.929 160.722 664.854C160.64 667.984 160.994 670.444 159.224 673.134C159.56 675.004 159.72 674.494 159.312 676.184C159.136 671.344 159.181 667.094 158.186 662.341C157.833 664.324 158.042 664.184 157.183 665.924L155.448 664.474C152.437 667.004 150.011 672.704 149.615 676.644C151.274 678.454 153.272 678.144 156.37 678.674C153.899 684.084 148.896 692.134 142.981 693.874L138.745 694.274C135.425 698.634 136.148 761.544 135.474 772.544C134.863 782.534 141.961 804.274 131.344 813.724L128.07 812.664L127.555 809.094C127.226 806.044 127.936 807.074 126.205 805.344C123.673 805.464 122.755 805.514 120.212 805.194L118.342 804.944L108.485 815.654C105.567 787.594 103.316 747.294 102.442 719.274C110.074 709.144 117.873 700.244 125.26 689.764C119.257 689.764 104.95 689.874 103.813 682.864C105.49 679.054 105.571 679.004 108.156 675.694L109.253 677.224L110.692 677.054C112.315 673.074 111.051 666.334 111.961 664.074C114.026 658.944 118.062 652.161 120.609 646.747C123.139 641.485 125.266 636.397 127.525 631.02L127.899 629.311C129.854 623.597 137.593 608.441 140.537 602.764C144.546 593.136 149.246 585.281 153.427 575.908C154.462 573.589 152.578 571.036 151.475 569.051C147.646 567.346 140.549 553.239 137.92 549.01L106.652 499.628L32.8659 382.694C24.3319 368.874 13.8129 354.623 6.96992 339.825C4.30492 333.262 5.62493 326.294 8.25093 320.224C16.8159 300.429 34.0769 301.246 53.1499 297.844L129.024 284.631C175.803 276.63 169.019 284.659 186.633 241.951C188.613 240.496 188.842 240.568 191.215 239.778C187.469 229.324 194.754 219.423 199.008 208.185C201.171 203.246 203.574 198.194 205.135 193.06C208.075 183.804 214.11 173.941 217.701 164.346L218.043 163.406L220.342 162.484C220.996 160.821 221.211 160.896 221.049 159.292C220.134 150.262 226.583 139.903 230.11 129.916C230.967 128.596 234.105 121.056 234.932 119.164C240.241 105.419 241.863 93.046 256.568 84.675Z" fill="url(#paint0_linear_404_136)"/>
<path d="M650.688 686.394C672.549 678.934 701.229 666.994 722.089 657.289L722.259 666.364C721.329 708.604 721.949 752.994 721.949 795.424L721.939 1026.66L721.969 1101.67C721.999 1109.01 723.209 1142.67 720.949 1148.36C685.589 1237.41 661.449 1237.68 608.944 1160.11C597.792 1143.64 575.094 1120.16 564.385 1099.43C547.52 1099.42 510.67 1110.9 492.501 1114.72C412.575 1130.98 332.923 1148.56 253.577 1167.45L182.039 1183.66C161.328 1188.51 128.393 1202.45 110.548 1186.23C89.9709 1167.53 103.573 1148.74 111.418 1126.66C124.232 1090.62 138.02 1054.93 152.769 1019.64C159.578 1003.04 162.611 991.234 170.586 974.344L172.292 974.954C171.342 996.354 187.625 1008.71 204.998 1017.72C241.75 1017.54 269.462 1009.65 305.378 1011.31C309.646 1007.8 310.909 1006.43 313.69 1001.6C315.011 998.464 316.552 996.364 318.408 993.544L321.151 989.084C323.408 980.744 311.857 958.054 305.338 952.024C302.636 949.524 295.619 946.984 291.239 942.904C284.772 906.814 287.259 907.784 297.513 871.444C297.829 868.844 299.782 863.704 300.702 860.984C302.776 854.654 304.731 848.274 306.568 841.874C308.987 835.614 311.111 828.854 313.234 822.454C313.461 820.504 315.936 814.504 316.765 812.314C320.932 802.614 334.231 794.344 343.11 787.684C345.262 785.744 347.808 783.874 350.111 782.084C352.334 780.794 358.231 775.764 360.535 773.894C362.463 771.514 385.465 754.204 388.82 753.724C391.782 755.644 392.682 757.874 394.489 760.944C401.787 771.004 408.954 781.154 415.988 791.404C417.574 818.034 418.183 846.484 421.382 872.914C422.143 879.204 428.62 886.184 430.11 892.684C431.614 899.244 427.801 915.634 431.727 920.074L434.892 921.134C441.742 931.614 442.844 927.364 454.238 932.254L458.274 939.034C456.337 947.774 453.452 955.344 452.636 964.404C451.986 971.614 461.693 982.204 468.2 982.684C479.822 983.544 492.724 982.994 504.55 982.954L591.474 982.854C591.396 977.444 590.625 968.214 589.789 962.934C587.163 945.744 577.922 930.254 564.036 919.774C562.801 918.824 552.666 912.164 552.392 911.774C536.312 889.234 523.576 851.604 520.538 824.504C518.607 816.874 517.182 809.724 515.66 801.994C512.793 786.094 510.373 780.764 515.76 765.954C517.531 761.734 519.363 757.534 521.253 753.364C525.1 744.274 527.926 737.114 531.17 727.774C532.122 723.054 532.063 721.464 536.538 719.404C545.857 717.184 555.547 714.464 564.846 712.004C576.283 710.554 616.864 696.684 632.253 692.904L650.688 686.394Z" fill="#DBDBD9"/>
<path d="M650.688 686.394C657.766 686.314 658.799 686.014 665.059 688.984L656.127 688.664L655.396 689.834C656.874 692.104 656.821 692.054 658.889 693.814C658.086 696.644 656.813 698.884 654.177 700.224C650.422 702.144 630.666 707.284 627.714 706.954L627.463 705.024C627.185 702.944 627.054 702.274 626.386 700.234L625.058 699.924C622.498 702.194 622.374 702.624 620.518 705.394C612.184 705.814 614.876 698.804 601.462 704.024C599.686 706.354 600.038 705.094 600.163 707.854C604.669 710.134 607.645 707.214 611.233 709.854C610.693 715.444 585.444 723.114 580.537 723.094L577.947 719.014C573.968 718.734 571.573 720.254 567.809 721.894C563.673 720.494 564.498 717.474 564.473 713.424L564.846 712.004C576.283 710.554 616.864 696.684 632.253 692.904L650.688 686.394Z" fill="#C0C0C0"/>
<path d="M650.688 686.394C657.766 686.314 658.799 686.014 665.059 688.984L656.127 688.664L655.396 689.834C656.874 692.104 656.821 692.054 658.889 693.814C653.366 693.054 639.204 693.254 632.253 692.904L650.688 686.394Z" fill="#EEEEEE"/>
<path d="M650.688 686.394C672.549 678.934 701.229 666.994 722.089 657.289L722.259 666.364C720.029 669.954 712.939 675.264 708.759 675.374C702.669 670.844 706.619 668.024 702.579 668.404C701.069 670.564 699.909 672.044 698.819 674.474C698.579 673.144 698.259 671.854 697.859 670.554C694.469 670.214 687.679 674.444 683.659 676.344L684.639 676.524C687.709 677.084 688.489 677.024 691.009 678.954C692.899 685.834 680.869 691.074 675.249 691.804C674.759 689.834 674.219 687.884 673.649 685.934L672.209 685.494C669.409 687.394 669.099 687.494 666.719 690.084C665.239 689.484 665.719 689.944 665.059 688.984C658.799 686.014 657.766 686.314 650.688 686.394Z" fill="#B1B0B0"/>
<path d="M360.535 773.894C362.463 771.514 385.465 754.204 388.82 753.724C391.782 755.644 392.682 757.874 394.489 760.944C393.349 763.184 392.456 767.014 391.448 768.334L390.175 766.074C386.706 766.554 384.382 767.594 381.117 767.804C370.474 781.754 379.018 779.574 361.798 788.204L361.57 777.904L360.535 773.894Z" fill="#B1B0B0"/>
<path d="M350.111 782.084C352.334 780.794 358.231 775.764 360.535 773.894L361.57 777.904L361.798 788.204C361.558 794.174 362.46 792.444 357.613 796.454C353.81 799.604 352.964 800.654 348.306 802.704L346.089 802.414C345.309 799.674 345.478 800.764 345.911 797.794L346.078 791.924C345.196 788.514 346.081 789.934 343.11 787.684C345.262 785.744 347.808 783.874 350.111 782.084Z" fill="#EEEEEE"/>
<path d="M343.11 787.684C345.262 785.744 347.808 783.874 350.111 782.084L348.022 786.124C350.826 789.274 353.185 785.474 357.25 789.174C356.885 792.264 355.547 793.414 353.599 795.864L345.911 797.794L346.078 791.924C345.196 788.514 346.081 789.934 343.11 787.684Z" fill="#B1B0B0"/>
<path d="M361.798 788.204L358.482 786.964C356.671 783.764 357.159 785.454 357.125 781.644C359.44 778.344 357.984 779.514 361.57 777.904L361.798 788.204Z" fill="#DBDBD9"/>
<path d="M343.11 787.684C346.081 789.934 345.196 788.514 346.078 791.924L344.377 791.504C342.185 794.954 341.689 796.334 340.134 800.184C334.692 801.524 332.709 806.024 331.531 811.464C330.346 808.344 330.781 807.884 328.528 806.204C325.799 808.424 324.793 815.584 326.247 818.744L329.518 819.284C327.864 820.964 328.732 820.224 325.345 820.454C323.473 818.584 322.143 818.784 319.446 818.474L318.4 818.364C316.455 816.194 317.085 815.944 316.765 812.314C320.932 802.614 334.231 794.344 343.11 787.684Z" fill="#C0C0C0"/>
<path d="M515.76 765.954C516.961 767.714 517.934 769.374 518.83 771.304C521.039 772.334 521.384 772.284 523.815 772.734C518.922 778.864 523.557 793.004 526.818 799.514L524.193 802.024C521.495 801.954 522.792 802.294 520.447 800.314C519.171 797.004 519.068 796.654 518.467 793.154C517.143 797.554 518.616 799.884 515.66 801.994C512.793 786.094 510.373 780.764 515.76 765.954Z" fill="#EEEEEE"/>
<path d="M515.66 801.994C518.616 799.884 517.143 797.554 518.467 793.154C519.068 796.654 519.171 797.004 520.447 800.314C522.792 802.294 521.495 801.954 524.193 802.024L526.818 799.514C525.872 802.054 525.354 802.944 523.754 805.144L524.41 806.084C528.161 811.584 532.235 818.274 522.556 819.434C520.29 821.884 521.247 820.474 520.538 824.504C518.607 816.874 517.182 809.724 515.66 801.994Z" fill="#C0C0C0"/>
<path d="M300.702 860.984C302.691 866.684 302.648 865.954 309.26 865.784C308.945 871.484 308.929 874.104 307.399 879.734L302.607 881.934L300.42 891.104L300.789 889.694L299.494 888.484C299.392 883.284 299.964 875.684 297.513 871.444C297.829 868.844 299.782 863.704 300.702 860.984Z" fill="#B1B0B0"/>
<path d="M536.538 719.404C545.857 717.184 555.547 714.464 564.846 712.004L564.473 713.424C557.223 717.654 562.946 721.524 552.642 722.314C550.61 724.274 550.19 724.354 549.056 726.874C546.725 723.664 541.551 725.154 536.311 724.294L535.262 722.644L536.538 719.404Z" fill="#EEEEEE"/>
<path d="M536.538 719.404L535.262 722.644L536.311 724.294C541.551 725.154 546.725 723.664 549.056 726.874L545.474 727.384C541.828 732.834 542.567 736.604 536.597 741.954L534.268 740.924C533.17 736.104 533.273 734.704 533.387 729.724C532.104 727.754 532.947 728.264 531.17 727.774C532.122 723.054 532.063 721.464 536.538 719.404Z" fill="#B1B0B0"/>
<path d="M515.76 765.954C517.531 761.734 519.363 757.534 521.253 753.364C523.008 755.284 523.724 755.214 526.247 755.704C530.602 761.034 529.427 769.264 523.815 772.734C521.384 772.284 521.039 772.334 518.83 771.304C517.934 769.374 516.961 767.714 515.76 765.954Z" fill="#B1B0B0"/>
<path d="M316.765 812.314C317.085 815.944 316.455 816.194 318.4 818.364L319.446 818.474C322.143 818.784 323.473 818.584 325.345 820.454C324.654 825.094 324.465 829.384 322.185 833.394C319.064 835.114 318.316 836.224 315.273 836.164C314.43 830.514 315.676 827.154 313.234 822.454C313.461 820.504 315.936 814.504 316.765 812.314Z" fill="#B1B0B0"/>
<path d="M300.702 860.984C302.776 854.654 304.731 848.274 306.568 841.874C314.443 854.714 309.846 851.854 309.26 865.784C302.648 865.954 302.691 866.684 300.702 860.984Z" fill="#C0C0C0"/>
<path d="M321.151 989.084C326.475 992.354 327.025 998.734 322.458 1003.3C321.084 1003.31 318.224 1003.24 316.993 1003.38C318.145 999.004 318.325 998.054 318.408 993.544L321.151 989.084Z" fill="#C0C0C0"/>
<path d="M331.531 811.464C332.709 806.024 334.692 801.524 340.134 800.184C340.535 804.834 340.997 806.074 339.355 810.244C336.634 812.734 335.211 812.384 331.531 811.464Z" fill="#EEEEEE"/>
<path d="M318.408 993.544C318.325 998.054 318.145 999.004 316.993 1003.38L317.207 1009.65L316.105 1010.32C316.146 1012.15 317.113 1012.42 316.432 1013.91C314.881 1010.5 315.024 1005.82 313.69 1001.6C315.011 998.464 316.552 996.364 318.408 993.544Z" fill="#B1B0B0"/>
<path d="M205.738 1022.37C211.807 1021.42 247.64 1020.85 252.641 1023.3C247.146 1025.18 249.048 1023.91 245.466 1029.65H245.216C241.988 1027.6 243.428 1028.91 241.442 1024.85L240.275 1024.47C238.688 1026.25 237.296 1027.92 235.783 1029.75C232.173 1030.97 210.041 1024.21 205.738 1022.37Z" fill="#B1B0B0"/>
<path d="M256.568 84.675C264.343 84.443 274.831 83.699 282.423 85.01C290.301 86.371 300.428 99.809 306.742 99.62C311.303 99.483 329.911 109.968 331.802 112.201L331.766 115.023C334.908 116.288 334.697 115.908 337.662 116.005C350.281 116.422 356.952 130.739 369.521 131.782C375.473 132.276 394.202 148.471 402.045 149.354C402.928 149.454 404.739 150.507 405.534 150.991C414.125 155.259 467.914 186.386 470.647 186.607L465.042 187.505C409.089 197.921 369.546 204.838 317.204 233.78C245.512 273.421 211.116 360.599 183.084 433.769C169.327 469.679 165.348 535.692 160.848 575.147C158.92 609.976 144.778 660.361 125.26 689.764C119.257 689.764 104.95 689.874 103.813 682.864C105.49 679.054 105.571 679.004 108.156 675.694L109.253 677.224L110.692 677.054C112.315 673.074 111.051 666.334 111.961 664.074C114.026 658.944 118.062 652.161 120.609 646.747C123.139 641.485 125.266 636.397 127.525 631.02L127.899 629.311C129.854 623.597 137.593 608.441 140.537 602.764C144.546 593.136 149.246 585.281 153.427 575.908C154.462 573.589 152.578 571.036 151.475 569.051C147.646 567.346 140.549 553.239 137.92 549.01L106.652 499.628L32.8659 382.694C24.3319 368.874 13.8129 354.623 6.96992 339.825C4.30492 333.262 5.62493 326.294 8.25093 320.224C16.8159 300.429 34.0769 301.246 53.1499 297.844L129.024 284.631C175.803 276.63 169.019 284.659 186.633 241.951C188.613 240.496 188.842 240.568 191.215 239.778C187.469 229.324 194.754 219.423 199.008 208.185C201.171 203.246 203.574 198.194 205.135 193.06C208.075 183.804 214.11 173.941 217.701 164.346L218.043 163.406L220.342 162.484C220.996 160.821 221.211 160.896 221.049 159.292C220.134 150.262 226.583 139.903 230.11 129.916C230.967 128.596 234.105 121.056 234.932 119.164C240.241 105.419 241.863 93.046 256.568 84.675Z" fill="#DBDBD9"/>
<path d="M199.008 208.185C201.171 203.246 203.574 198.194 205.135 193.06C205.425 196.321 205.666 200.448 206.149 203.608C206.808 207.33 207.242 206.597 206.064 209.615C203.745 209.982 202.589 210.231 200.445 211.173L200.616 212.621C201.092 216.887 201.545 218.124 200.315 222.037C189.394 233.893 194.043 225.915 191.215 239.778C187.469 229.324 194.754 219.423 199.008 208.185Z" fill="#E7E7E6"/>
<path d="M199.008 208.185C201.171 203.246 203.574 198.194 205.135 193.06C205.425 196.321 205.666 200.448 206.149 203.608L204.962 208.144C202.327 209.518 202.699 208.927 199.008 208.185Z" fill="#EEEEEE"/>
<path d="M234.932 119.164C236.087 121.681 237.335 124.02 237.923 126.714C237.234 131.772 237.646 131.186 232.651 133.378C228.374 141.2 239.433 144.028 224.328 149.6C220.673 155.325 225.57 159.045 220.342 162.484C220.996 160.821 221.211 160.896 221.049 159.292C220.134 150.262 226.583 139.903 230.11 129.916C230.967 128.596 234.105 121.056 234.932 119.164Z" fill="#E7E7E6"/>
<path d="M234.932 119.164C236.087 121.681 237.335 124.02 237.923 126.714C235.798 130.76 237.316 129.744 233.959 130.898L230.11 129.916C230.967 128.596 234.105 121.056 234.932 119.164Z" fill="#EEEEEE"/>
<path d="M405.534 150.991C414.125 155.259 467.914 186.386 470.647 186.607L465.042 187.505C455.357 178.403 454.518 180.979 442.48 178.063C440.254 177.524 440.04 175.589 439.337 173.646L440.256 171.916C430.248 164.653 412.678 159.065 405.534 150.991Z" fill="#E7E7E6"/>
<path d="M140.537 602.764C142.553 606.678 142.708 606.841 142.996 611.141C140.466 616.634 136.333 616.172 135.639 617.541C132.95 622.838 132.429 624.442 127.899 629.311C129.854 623.597 137.593 608.441 140.537 602.764Z" fill="#E7E7E6"/>
<path d="M120.609 646.747C123.139 641.485 125.266 636.397 127.525 631.02C127.579 636.013 128.472 641.88 126.579 645.903C124.41 647.309 123.271 646.888 120.609 646.747Z" fill="#EEEEEE"/>
<path d="M199.82 529.097C198.758 570.805 199.992 609.624 201.514 651.285C200.701 646.137 187.077 623.355 183.574 621.306C182.799 624.327 182.077 627.362 181.409 630.409C178.941 631.051 179.306 630.886 176.969 631.973C176.507 634.376 176.112 636.753 175.849 639.188C174.664 638.147 173.993 625.377 172.977 621.77C173.492 619.964 172.982 620.675 174.465 619.608L175.561 622.41L175.247 620.267L176.115 619.797L176.057 617.446C175.279 615.003 179.677 603.454 180.846 599.688C186.456 581.608 191.072 563.255 195.827 544.934C196.933 538.273 197.793 535.469 199.82 529.097Z" fill="#DBDBD9"/>
<path d="M195.827 544.934C196.225 551.211 195.345 557.639 195.923 563.459C197.128 575.577 192.89 585.771 192.041 597.407C181.272 608.76 191.875 610.373 187.582 617.46C183.883 618.794 180.043 617.902 176.057 617.446C175.279 615.003 179.677 603.454 180.846 599.688C186.456 581.608 191.072 563.255 195.827 544.934Z" fill="#C0C0C0"/>
<path d="M887.869 982.284C888.849 975.604 885.699 972.164 885.799 965.564L886.719 965.614C892.829 975.014 894.399 988.644 905.429 990.504C911.249 991.484 919.439 992.304 925.439 993.034C924.189 997.304 924.989 997.074 922.179 999.504C917.549 999.284 913.719 994.514 911.579 994.924C907.079 995.804 906.949 998.224 900.869 995.034C893.649 991.244 887.419 999.094 879.259 1001.22C873.319 997.684 882.409 994.324 865.879 998.484C863.019 999.184 860.179 999.984 857.369 1000.88C857.039 1004.54 864.419 1008 858.649 1011.75C846.769 1019.48 831.039 1015.09 818.269 1012.49C817.029 1012.24 816.159 1013.77 815.299 1014.84C811.719 1013.08 805.179 1009.21 801.629 1009.48L798.289 1011.75C795.809 1010.55 794.239 1009.14 792.089 1007.45C792.449 1005.31 792.389 1005.45 793.739 1003.74C815.669 1019.47 868.669 995.524 887.869 982.284Z" fill="#E7E7E6"/>
<path d="M887.869 982.284C892.239 983.264 891.099 982.404 894.029 985.174L895.899 991.134C892.979 990.664 890.269 990.704 888.349 988.704C887.479 985.474 887.559 985.644 887.869 982.284Z" fill="#EEEEEE"/>
<path d="M141.765 683.304C143.107 687.824 142.924 689.034 142.981 693.874L138.745 694.274C135.425 698.634 136.148 761.544 135.474 772.544C134.863 782.534 141.961 804.274 131.344 813.724L128.07 812.664L127.555 809.094C127.226 806.044 127.936 807.074 126.205 805.344C123.673 805.464 122.755 805.514 120.212 805.194L118.342 804.944C123.171 800.004 127.207 796.154 131.182 790.484C130.092 771.504 130.532 752.464 130.199 733.574C129.777 709.604 128.807 703.484 141.765 683.304Z" fill="#E7E7E6"/>
<path d="M131.182 790.484C131.561 794.074 129.546 804.694 128.863 808.894L127.555 809.094C127.226 806.044 127.936 807.074 126.205 805.344C123.673 805.464 122.755 805.514 120.212 805.194L118.342 804.944C123.171 800.004 127.207 796.154 131.182 790.484Z" fill="#EEEEEE"/>
<path d="M967.199 931.494C962.839 908.194 967.709 890.784 980.589 871.894C981.429 875.014 983.379 880.794 983.679 883.584C977.899 888.704 981.259 909.424 975.179 913.894C969.059 913.094 969.639 906.004 969.679 901.244L969.279 900.744C968.529 910.364 968.099 922.274 967.199 931.494Z" fill="#DBDBD9"/>
<path d="M985.369 864.904L987.979 860.874C990.039 866.734 990.279 865.744 996.679 865.914C995.329 874.614 994.719 877.794 986.949 882.264L983.679 883.584C983.379 880.794 981.429 875.014 980.589 871.894L985.369 864.904Z" fill="#DBDBD9"/>
<path d="M985.369 864.904C987.009 869.364 986.889 877.274 986.949 882.264L983.679 883.584C983.379 880.794 981.429 875.014 980.589 871.894L985.369 864.904Z" fill="#EEEEEE"/>
<path d="M162.847 645.67C174.893 648.896 166.787 659.929 160.722 664.854C160.64 667.984 160.994 670.444 159.224 673.134C159.56 675.004 159.72 674.494 159.312 676.184C159.136 671.344 159.181 667.094 158.186 662.341C157.833 664.324 158.042 664.184 157.183 665.924L155.448 664.474L155.527 659.093C156.373 657.321 157.904 654.893 158.933 653.132C159.425 652.463 162.296 646.74 162.847 645.67Z" fill="#DBDBD9"/>
<path d="M158.933 653.132C161.308 658.067 161.115 659.344 160.722 664.854C160.64 667.984 160.994 670.444 159.224 673.134C159.56 675.004 159.72 674.494 159.312 676.184C159.136 671.344 159.181 667.094 158.186 662.341C157.833 664.324 158.042 664.184 157.183 665.924L155.448 664.474L155.527 659.093C156.373 657.321 157.904 654.893 158.933 653.132Z" fill="#EEEEEE"/>
<path d="M155.527 659.093L155.448 664.474C152.437 667.004 150.011 672.704 149.615 676.644C151.274 678.454 153.272 678.144 156.37 678.674C153.899 684.084 148.896 692.134 142.981 693.874C142.924 689.034 143.107 687.824 141.765 683.304C144.943 680.544 152.97 663.854 155.527 659.093Z" fill="#DBDBD9"/>
<path d="M1004.91 831.794C1010.35 837.084 1010.81 830.354 1012.81 839.174C1013.55 842.464 1010.54 846.364 1008.58 849.004C1006.21 850.384 1004.86 850.024 1002.11 849.884C1002.56 844.824 1002.51 843.044 1000.97 838.294L1004.91 831.794Z" fill="#EEEEEE"/>
<path d="M1000.97 838.294C1002.51 843.044 1002.56 844.824 1002.11 849.884C996.229 853.714 996.889 859.204 996.679 865.914C990.279 865.744 990.039 866.734 987.979 860.874C993.489 852.464 996.909 847.464 1000.97 838.294Z" fill="#E7E7E6"/>
<path d="M434.892 921.134C445.706 921.734 450.62 920.284 454.238 932.254C442.844 927.364 441.742 931.614 434.892 921.134Z" fill="#C0C0C0"/>
<path d="M179.399 944.384C182.09 958.994 181.087 962.574 172.292 974.954L170.586 974.344C172.523 969.584 179.929 948.934 179.399 944.384Z" fill="#E7E7E6"/>
<path d="M771.289 985.574C777.469 987.614 779.929 990.094 784.369 994.854L782.629 998.804C779.819 998.144 777.109 994.744 774.919 992.494C772.959 992.104 772.369 992.074 770.419 992.064H768.579C769.519 989.914 770.419 987.754 771.289 985.574Z" fill="#E7E7E6"/>
<path d="M859.849 795.364C863.249 800.554 866.149 805.164 869.259 810.534C873.539 814.784 875.829 815.984 881.499 818.264C880.579 836.094 883.849 834.064 885.919 847.424C887.669 858.664 861.339 882.184 853.329 894.404C858.879 905.514 865.759 921.724 873.029 931.044C869.959 930.314 862.359 928.644 859.919 927.234C849.539 921.234 837.009 908.634 830.899 898.564C832.419 889.914 833.969 883.184 836.149 874.644L838.299 867.634C839.769 863.234 841.099 857.874 842.359 853.334L843.029 850.094C845.059 844.344 846.679 839.164 848.419 833.324C851.899 820.494 855.869 808.034 859.849 795.364Z" fill="#EEEEEE"/>
<path d="M859.849 795.364C863.249 800.554 866.149 805.164 869.259 810.534C859.439 817.474 864.549 825.444 860.469 835.014C859.069 836.004 857.689 837.024 856.339 838.074C855.839 836.004 855.989 836.594 854.859 834.694C852.719 834.204 850.569 833.744 848.419 833.324C851.899 820.494 855.869 808.034 859.849 795.364Z" fill="#E7E7E6"/>
<path d="M848.419 833.324C850.569 833.744 852.719 834.204 854.859 834.694C855.989 836.594 855.839 836.004 856.339 838.074C856.039 842.244 856.269 846.004 854.159 849.444L852.069 850.104C849.209 850.274 845.939 850.144 843.029 850.094C845.059 844.344 846.679 839.164 848.419 833.324Z" fill="#C0C0C0"/>
<path d="M843.029 850.094C845.939 850.144 849.209 850.274 852.069 850.104L849.819 851.544C851.059 858.654 852.899 857.944 849.589 864.524C845.079 866.984 842.879 865.094 838.299 867.634C839.769 863.234 841.099 857.874 842.359 853.334L843.029 850.094Z" fill="#E7E7E6"/>
<path d="M836.149 874.644C838.069 884.844 840.409 884.244 840.309 896.384C837.299 897.064 833.849 897.764 830.899 898.564C832.419 889.914 833.969 883.184 836.149 874.644Z" fill="#E7E7E6"/>
<path d="M763.179 143.837C793.909 123.664 847.419 96.7861 883.969 94.5191C921.409 92.1981 982.839 117.789 1016.31 134.871C1055.54 154.896 1054.42 156.26 1098.67 159.089C1116.87 173.135 1124.82 213.146 1138.73 234.88C1154.68 259.783 1175.21 275.497 1191.44 299.384C1202.25 315.859 1213.46 332.848 1221.21 351.034C1233.06 378.874 1241.28 408.476 1251.57 436.873C1262.39 466.742 1281.74 496.156 1280.65 529.381L1282.25 533.791L1283.1 533.465C1284.13 527.242 1283.7 521.201 1284.03 514.85L1284.23 516.046C1285.23 521.894 1290.37 532.712 1286.88 536.872C1282.06 542.613 1290.04 548.168 1289.84 552.658L1287.03 553.337C1283.31 559.581 1288.37 562.226 1288.53 568.084L1284.79 568.857C1284.01 570.643 1283.78 573.676 1283.04 576C1268.25 569.752 1214.56 525.499 1194.93 518.374C1192 517.677 1186.14 521.543 1184.55 523.297C1176.88 531.774 1197.57 543.016 1203.12 547.661L1203.81 548.243C1231.7 567.302 1260.51 584.983 1290.14 601.222C1293.69 602.564 1300.15 605.419 1303.44 607.338C1301.37 608.406 1301.84 608.01 1299.2 608.083C1298.38 610.013 1298.32 610.221 1297.75 612.173C1296.08 610.189 1296.02 609.503 1295.03 607.055C1293.99 609.213 1293.43 611.835 1292.82 614.158C1290.28 623.773 1296.64 658.566 1289.56 663.524C1289.18 663.784 1288.79 664.024 1288.41 664.274C1288.01 670.804 1295.79 675.074 1287.32 679.374C1287.79 690.004 1289.89 687.444 1284.67 695.634L1283.63 695.124C1283.49 689.454 1283.68 674.364 1282.22 670.164L1281.76 670.004L1280.75 672.834C1279.67 690.764 1276.82 707.274 1274.35 724.984L1274.78 726.724C1276.15 732.104 1279.24 737.304 1278.54 742.734C1277.47 750.964 1278.46 762.174 1277.01 769.974C1276.46 778.704 1278.25 786.534 1268.42 787.684C1268.24 782.784 1268.52 773.094 1266.66 769.124C1263.2 780.904 1260.76 789.984 1255.67 801.224C1259.62 804.434 1262.1 801.034 1262.38 806.514C1262.66 811.784 1260.06 818.084 1255.31 820.354L1253.04 819.794C1252.3 817.074 1251.65 814.104 1250.53 811.574L1249.88 814.484C1250.21 823.924 1245.72 824.084 1246.83 834.674C1246.83 840.604 1241.51 846.974 1236.85 842.304L1235.96 841.184C1230.9 841.064 1226.87 853.094 1219.46 838.784L1216.33 837.844C1196.02 838.504 1179.51 836.134 1160.59 828.604C1153.79 825.894 1148.35 821.744 1140.81 821.774C1137.72 820.984 1134.88 815.054 1132.47 813.314C1109.99 797.094 1115.07 774.854 1122.07 752.434C1127.1 736.324 1133.13 722.014 1138.54 706.514C1145.35 709.484 1178.72 723.824 1181 728.964C1180.16 733.424 1177.81 736.284 1175.32 740.154C1174.63 741.044 1173.25 742.674 1172.77 743.594C1171.41 746.584 1169.39 750.684 1168.31 753.664C1168.62 762.384 1169.16 766.504 1167.78 775.064C1173.48 777.354 1179.24 779.524 1185.03 781.574C1190.83 779.154 1195.28 777.454 1200.63 774.124C1200.29 757.134 1204.23 736.034 1204.17 717.294C1203.99 696.254 1206.01 666.064 1201.62 645.848C1196.62 622.767 1184.77 611.962 1184.24 586.035C1183.99 573.853 1167.53 532.305 1159.09 523.342C1158.47 525.123 1158.13 526.107 1157.38 527.854C1152.66 524.188 1148.85 525.354 1145.35 529.627L1144.6 534.797C1140.68 539.792 1138.47 536.722 1135.08 544.297L1134.08 544.462C1133.78 542.151 1133.84 542.88 1134.26 540.506C1131.3 539.315 1130.07 541.825 1125.75 540.586C1116.41 530.501 1107.52 514.737 1097.43 505.168L1097.01 506.203C1095.38 510.36 1095.24 510.683 1094.82 515.025L1093.05 509.566C1084.44 507.474 1083.07 508.249 1077.11 514.512C1062.85 514.159 1061.8 517.64 1050.63 518.807C1048.23 514.856 1049.19 512.417 1046.85 511.595C1044.19 513.618 1043.63 514.907 1041.87 517.696C1039.74 519.067 1039.16 518.732 1036.52 518.764L1035.17 520.347L1035.61 521.525C1039.09 522.729 1040.53 522.422 1041.74 524.814C1039.85 534.471 1032.62 543.973 1024.08 548.77C1013.32 546.047 991.739 546.174 980.579 548.001C974.039 552.804 975.399 553.954 967.059 553.576C968.299 549.196 968.999 545.562 969.849 541.133C969.879 536.974 970.509 537.869 968.499 535.104C936.549 523.762 903.399 496.518 875.829 476.857C847.569 456.697 819.429 440.521 788.179 425.578C785.059 424.089 778.479 419.961 776.819 416.96C751.639 371.31 720.879 329.153 698.079 282.088C692.419 270.395 685.209 259.732 680.349 247.653C664.349 207.237 700.719 184.284 729.299 165.42C735.629 161.185 750.399 153.743 753.459 146.926L752.829 145.374C749.009 145.076 745.449 144.926 741.619 144.797C748.329 143.553 756.279 143.836 763.179 143.837Z" fill="#2CA5D3"/>
<path d="M1030.65 512.924C1042.25 505.986 1085.7 496.61 1097.43 505.168L1097.01 506.203C1095.38 510.36 1095.24 510.683 1094.82 515.025L1093.05 509.566C1084.44 507.474 1083.07 508.249 1077.11 514.512C1062.85 514.159 1061.8 517.64 1050.63 518.807C1048.23 514.856 1049.19 512.417 1046.85 511.595C1044.19 513.618 1043.63 514.907 1041.87 517.696C1039.74 519.067 1039.16 518.732 1036.52 518.764L1035.17 520.347L1035.61 521.525C1039.09 522.729 1040.53 522.422 1041.74 524.814C1039.85 534.471 1032.62 543.973 1024.08 548.77C1013.32 546.047 991.739 546.174 980.579 548.001C974.039 552.804 975.399 553.954 967.059 553.576C968.299 549.196 968.999 545.562 969.849 541.133C985.449 535.872 1008.78 542.824 1031.33 537.449C1030.17 531.645 1027.28 519.544 1028.52 514.068L1030.65 512.924Z" fill="#DBDBD9"/>
<path d="M1031.33 537.449C1030.17 531.645 1027.28 519.544 1028.52 514.068L1030.65 512.924C1032.82 514.176 1033.23 513.791 1033.6 515.676C1034.7 521.321 1033.98 529.856 1033.54 535.536C1032.23 537.512 1033.09 537.049 1031.33 537.449Z" fill="#EEEEEE"/>
<path d="M1290.14 601.222C1293.69 602.564 1300.15 605.419 1303.44 607.338C1301.37 608.406 1301.84 608.01 1299.2 608.083C1298.38 610.013 1298.32 610.221 1297.75 612.173C1296.08 610.189 1296.02 609.503 1295.03 607.055C1293.99 609.213 1293.43 611.835 1292.82 614.158C1290.28 623.773 1296.64 658.566 1289.56 663.524C1289.18 663.784 1288.79 664.024 1288.41 664.274C1288.01 670.804 1295.79 675.074 1287.32 679.374C1287.79 690.004 1289.89 687.444 1284.67 695.634L1283.63 695.124C1283.49 689.454 1283.68 674.364 1282.22 670.164L1281.76 670.004L1280.75 672.834C1280.86 665.044 1282.67 652.74 1283.47 644.615C1284.96 629.544 1285.17 619.186 1284.22 604.134C1286.29 602.2 1287.42 602.118 1290.14 601.222Z" fill="#DBDBD9"/>
<path d="M1203.81 548.243C1231.7 567.302 1260.51 584.983 1290.14 601.222C1287.42 602.118 1286.29 602.2 1284.22 604.134L1282.73 601.712C1263.6 598.218 1229.59 570.056 1210.75 560.232C1206.2 557.859 1201.39 553.646 1203.81 548.243Z" fill="#2B8AB5"/>
<path d="M1143.27 511.509L1155.56 520.637L1159.09 523.342C1158.47 525.123 1158.13 526.107 1157.38 527.854C1152.66 524.188 1148.85 525.354 1145.35 529.627L1144.6 534.797C1140.68 539.792 1138.47 536.722 1135.08 544.297L1134.08 544.462C1133.78 542.151 1133.84 542.88 1134.26 540.506C1131.3 539.315 1130.07 541.825 1125.75 540.586C1132.87 534.433 1138.89 520.336 1143.27 511.509Z" fill="#EEEEEE"/>
<path d="M1144.6 534.797C1144.19 531.595 1142.72 526.928 1142.03 523.174C1143.76 519.63 1142.47 520.53 1145.29 519.291L1146.1 519.749C1150.29 522.065 1150.91 522.425 1155.56 520.637L1159.09 523.342C1158.47 525.123 1158.13 526.107 1157.38 527.854C1152.66 524.188 1148.85 525.354 1145.35 529.627L1144.6 534.797Z" fill="#C0C0C0"/>
<path d="M1270.73 755.134C1279.6 757.814 1276.64 761.004 1277.01 769.974C1276.46 778.704 1278.25 786.534 1268.42 787.684C1268.24 782.784 1268.52 773.094 1266.66 769.124L1269.94 758.994L1270.73 755.134Z" fill="#DBDBD9"/>
<path d="M1269.94 758.994C1270.23 768.194 1270.69 778.734 1268.42 787.684C1268.24 782.784 1268.52 773.094 1266.66 769.124L1269.94 758.994Z" fill="#B1B0B0"/>
<path d="M1239.38 829.034L1239.34 834.074L1246.83 834.674C1246.83 840.604 1241.51 846.974 1236.85 842.304L1235.96 841.184C1230.9 841.064 1226.87 853.094 1219.46 838.784L1216.33 837.844C1227.82 836.974 1229.38 835.114 1239.38 829.034Z" fill="#DBDBD9"/>
<path d="M1239.34 834.074L1246.83 834.674C1246.83 840.604 1241.51 846.974 1236.85 842.304C1238.9 838.584 1238.87 838.374 1239.34 834.074Z" fill="#E7E7E6"/>
<path d="M1284.03 514.85L1284.23 516.046C1285.23 521.894 1290.37 532.712 1286.88 536.872C1282.06 542.613 1290.04 548.168 1289.84 552.658L1287.03 553.337C1283.31 559.581 1288.37 562.226 1288.53 568.084L1284.79 568.857C1285.27 566.405 1281.1 534.701 1280.65 529.381L1282.25 533.791L1283.1 533.465C1284.13 527.242 1283.7 521.201 1284.03 514.85Z" fill="#C0C0C0"/>
<path d="M1270.73 755.134C1271.85 744.254 1272.69 735.884 1274.35 724.984L1274.78 726.724C1276.15 732.104 1279.24 737.304 1278.54 742.734C1277.47 750.964 1278.46 762.174 1277.01 769.974C1276.64 761.004 1279.6 757.814 1270.73 755.134Z" fill="#E7E7E6"/>
<path d="M1250.53 811.574C1252.49 808.254 1254.21 804.794 1255.67 801.224C1259.62 804.434 1262.1 801.034 1262.38 806.514C1262.66 811.784 1260.06 818.084 1255.31 820.354L1253.04 819.794C1252.3 817.074 1251.65 814.104 1250.53 811.574Z" fill="#EEEEEE"/>
<path d="M1167.01 755.624L1168.31 753.664C1168.62 762.384 1169.16 766.504 1167.78 775.064C1164.42 774.524 1162.8 773.764 1160.84 771.174C1161.62 766.454 1164.88 760.164 1167.01 755.624Z" fill="#E7E7E6"/>
<path d="M1239.38 829.034C1244.53 824.914 1246.81 820.134 1249.88 814.484C1250.21 823.924 1245.72 824.084 1246.83 834.674L1239.34 834.074L1239.38 829.034Z" fill="#EEEEEE"/>
<path d="M1160.84 771.174C1160.76 764.924 1156.46 760.684 1160.25 756.174C1162.91 755.764 1164.34 755.734 1167.01 755.624C1164.88 760.164 1161.62 766.454 1160.84 771.174Z" fill="#2B8AB5"/>
<path d="M595.863 1.43002C617.214 1.44002 638.717 1.77302 660.049 1.58002C670.309 1.48602 680.419 0.113 691.149 0C694.649 4.428 699.699 34.665 699.179 39.757C703.119 46.453 702.589 47.23 702.839 55.068C704.439 60.461 703.809 60.645 702.059 66.291L702.439 67.547L705.139 68.073C706.729 72.431 706.409 79.006 706.509 83.86C688.989 84.258 691.349 86.646 675.379 93.101C664.479 97.507 639.981 100.734 630.69 107.841C627.89 109.087 628.019 109.043 624.967 109.362C619.896 105.774 616.782 91.009 614.922 84.124C612.86 77.401 611.882 69.714 610.049 62.584C604.41 40.648 596.67 24.242 595.863 1.43002Z" fill="#DBDBD9"/>
<path d="M614.922 84.124C619.191 85.13 618.382 84.285 620.968 86.992C624.357 96.377 617.787 100.262 624.835 107.183C626.785 107.416 628.737 107.635 630.69 107.841C627.89 109.087 628.019 109.043 624.967 109.362C619.896 105.774 616.782 91.009 614.922 84.124Z" fill="#EEEEEE"/>
<path d="M702.839 55.0681C695.879 50.0531 695.789 47.7781 699.179 39.7571C703.119 46.4531 702.589 47.2301 702.839 55.0681Z" fill="#EEEEEE"/>
<path d="M0 622.017C1.855 614.295 4.63098 603.763 12.907 600.369C14.817 599.585 15.868 599.014 17.06 597.302C17.784 590.86 17.445 588.102 22.32 584.062C32.021 583.156 55.112 606.27 65.639 611.658C69.458 613.828 68.711 612.735 70.728 616.13C70.846 621.093 68.175 623.831 65.163 627.844C61.704 631.932 46.668 653.162 43.494 653.629C42.142 650.766 42.353 650.438 40.121 648.339C25.328 648.548 23.722 637.026 16.89 632.322C10.394 627.849 10.652 632.07 0 622.017Z" fill="#DBDBD9"/>
<path d="M65.6389 611.658C69.4579 613.828 68.7109 612.735 70.7279 616.13C70.8459 621.093 68.1749 623.831 65.1629 627.844C64.9979 621.924 64.7239 617.582 65.6389 611.658Z" fill="#EEEEEE"/>
<path d="M270.131 1191.62C273.815 1196.8 287.71 1222.3 290.489 1228.16C283.499 1229.21 276.792 1230.21 269.767 1230.98C263.668 1231.94 258.105 1233.03 251.926 1233.05L251.597 1231.48C256.823 1224.94 267.175 1199.89 270.131 1191.62Z" fill="#E7E7E6"/>
<path d="M968.459 949.604C975.429 947.364 968.449 940.944 971.469 937.004C974.089 938.984 972.609 941.704 973.729 943.234L975.699 942.014C976.979 936.164 972.479 935.704 974.299 932.404C978.329 937.894 977.159 941.314 974.619 947.204C974.989 950.054 976.459 951.364 978.279 953.644C978.669 957.514 979.239 956.164 977.849 959.004L974.619 959.994C973.209 965.744 978.199 964.214 975.589 972.714C971.039 976.204 966.569 976.694 966.519 982.964C966.469 988.054 962.209 991.214 957.299 991.244C953.399 989.374 954.879 990.794 953.009 986.534C958.799 977.924 968.629 960.134 968.459 949.604Z" fill="#E7E7E6"/>
<path d="M375.559 1247.09C384.061 1254.63 382.465 1262.96 392.381 1272.69C386.92 1272.9 381.643 1272.77 376.186 1272.68C373.265 1272.21 364.923 1272.74 361.534 1272.86C365.212 1265.12 371.308 1254.8 375.559 1247.09Z" fill="#E7E7E6"/>
<path d="M1175.32 740.154C1179.24 740.324 1184.59 740.094 1187.86 741.844C1180.36 746.164 1184.88 753.874 1177.88 757.584C1174.77 756.714 1176.17 757.524 1173.94 754.484C1173.99 751.104 1174.47 746.294 1172.77 743.594C1173.25 742.674 1174.63 741.044 1175.32 740.154Z" fill="#C0C0C0"/>
<defs>
<linearGradient id="paint0_linear_404_136" x1="414.504" y1="1098.44" x2="787.42" y2="160.156" gradientUnits="userSpaceOnUse">
<stop stop-color="#1E70AF"/>
<stop offset="1" stop-color="#1392CD"/>
</linearGradient>
</defs>
</svg>
