<svg width="1298" height="1178" viewBox="0 0 1298 1178" fill="none" xmlns="http://www.w3.org/2000/svg">
<path d="M251.057 44.918C258.832 44.686 269.32 43.942 276.912 45.253C284.79 46.614 294.917 60.0519 301.231 59.8629C305.792 59.7259 324.4 70.211 326.291 72.444L326.255 75.266C329.397 76.531 329.186 76.1509 332.151 76.2479C344.77 76.6649 351.441 90.982 364.01 92.025C369.962 92.519 388.691 108.714 396.534 109.597C397.417 109.697 399.228 110.75 400.023 111.234C408.614 115.502 462.403 146.629 465.136 146.85C517.53 136.288 574.792 128.266 627.755 119.608C655.948 115 707.798 105.832 736.108 105.04C739.938 105.169 743.498 105.319 747.318 105.617L747.948 107.169C744.888 113.986 730.118 121.428 723.788 125.663C695.208 144.527 658.838 167.48 674.838 207.896C679.698 219.975 686.908 230.638 692.568 242.331C715.368 289.396 746.128 331.553 771.308 377.203C772.968 380.204 779.548 384.332 782.668 385.821C813.918 400.764 842.058 416.94 870.318 437.1C897.888 456.761 931.038 484.005 962.988 495.347C964.998 498.112 964.368 497.217 964.338 501.376C963.488 505.805 962.788 509.439 961.548 513.819C953.028 549.265 952.128 563.559 955.688 598.896C959.678 638.367 1009.77 759.777 999.398 792.037C1004.84 797.327 1005.3 790.597 1007.3 799.417C1008.04 802.707 1005.03 806.607 1003.07 809.247C1000.7 810.627 999.348 810.267 996.598 810.127C990.718 813.957 991.378 819.447 991.168 826.157C989.818 834.857 989.208 838.037 981.438 842.507L978.168 843.827C972.388 848.947 975.748 869.667 969.668 874.137C963.548 873.337 964.128 866.247 964.168 861.487L963.768 860.987C963.018 870.607 962.588 882.517 961.688 891.737C961.908 898.357 962.198 903.277 962.948 909.847C963.118 920.377 953.288 938.167 947.498 946.777C939.428 957.077 931.848 954.407 919.928 953.277C918.678 957.547 919.478 957.317 916.668 959.747C912.038 959.527 908.208 954.757 906.068 955.167C901.568 956.047 901.438 958.467 895.358 955.277C888.138 951.487 881.908 959.337 873.748 961.467C867.808 957.927 876.898 954.567 860.368 958.727C857.508 959.427 854.668 960.227 851.858 961.127C851.528 964.787 858.908 968.247 853.138 971.997C841.258 979.727 825.528 975.337 812.758 972.737C811.518 972.487 810.648 974.017 809.788 975.087C806.208 973.327 799.668 969.457 796.118 969.727L792.778 971.997C790.298 970.797 788.728 969.387 786.578 967.697C786.938 965.557 786.878 965.697 788.228 963.987L778.858 955.097L777.118 959.047C774.308 958.387 771.598 954.987 769.408 952.737C767.448 952.347 766.858 952.317 764.908 952.307H763.068C764.008 950.157 764.908 947.997 765.778 945.817C754.198 944.037 751.458 942.927 743.188 935.437C744.478 928.577 747.828 917.797 749.778 910.757C743.888 894.347 740.448 884.527 727.078 873.267C728.658 847.597 735.698 815.577 739.368 789.687C743.758 759.857 747.448 728.577 749.998 698.637C752.248 672.267 756.248 652.657 745.368 627.597C737.128 608.596 734.488 609.127 716.578 617.532L716.748 626.607C715.818 668.847 716.438 713.237 716.438 755.667L716.428 986.907L716.458 1061.92C716.488 1069.26 717.698 1102.92 715.438 1108.61C680.078 1197.66 655.938 1197.93 603.433 1120.36C592.281 1103.89 569.583 1080.41 558.874 1059.68C542.009 1059.67 505.159 1071.15 486.99 1074.97C407.064 1091.23 327.412 1108.81 248.066 1127.7L176.528 1143.91C155.817 1148.76 122.882 1162.7 105.037 1146.48C84.4599 1127.78 98.0619 1108.99 105.907 1086.91C118.721 1050.87 132.509 1015.18 147.258 979.887C154.067 963.287 157.1 951.477 165.075 934.587C167.012 929.827 174.418 909.177 173.888 904.627C173.694 898.567 180.63 877.827 182.821 870.367C189.557 847.637 195.98 824.827 202.089 801.917C204.42 793.237 210.403 772.797 210.872 764.377C212.03 743.587 199.759 716.017 197.811 694.707C196.793 683.587 197.153 671.817 197.046 660.747C196.783 644.337 196.436 627.937 196.003 611.528C195.19 606.38 181.566 583.598 178.063 581.549C177.288 584.57 176.566 587.605 175.898 590.652C173.43 591.294 173.795 591.129 171.458 592.216C170.996 594.619 170.601 596.996 170.338 599.431C169.153 598.39 168.482 585.62 167.466 582.013C164.079 591.461 162.045 597.124 157.336 605.913C169.382 609.139 161.276 620.172 155.211 625.097C155.129 628.227 155.483 630.687 153.713 633.377C154.049 635.247 154.209 634.737 153.801 636.427C153.625 631.587 153.67 627.337 152.675 622.584C152.322 624.567 152.531 624.427 151.672 626.167L149.937 624.717C146.926 627.247 144.5 632.947 144.104 636.887C145.763 638.697 147.761 638.387 150.859 638.917C148.388 644.327 143.385 652.377 137.47 654.117L133.234 654.517C129.914 658.877 130.637 721.787 129.963 732.787C129.352 742.777 136.45 764.517 125.833 773.967L122.559 772.907L122.044 769.337C121.715 766.287 122.425 767.317 120.694 765.587C118.162 765.707 117.244 765.757 114.701 765.437L112.831 765.187L102.974 775.897C100.056 747.837 97.8049 707.537 96.9309 679.517C104.563 669.387 112.362 660.487 119.749 650.007C113.746 650.007 99.4389 650.117 98.3019 643.107C99.9789 639.297 100.06 639.247 102.645 635.937L103.742 637.467L105.181 637.297C106.804 633.317 105.54 626.577 106.45 624.317C108.515 619.187 112.551 612.404 115.098 606.99C117.628 601.728 119.755 596.64 122.014 591.263L122.388 589.554C124.343 583.84 132.082 568.684 135.026 563.007C139.035 553.379 143.735 545.524 147.916 536.151C148.951 533.832 147.067 531.279 145.964 529.294C142.135 527.589 135.038 513.482 132.409 509.253L101.141 459.871L27.3549 342.937C18.8209 329.117 8.30193 314.866 1.45893 300.068C-1.20607 293.505 0.113941 286.537 2.73994 280.467C11.3049 260.672 28.5659 261.489 47.6389 258.087L123.513 244.874C170.292 236.873 163.508 244.902 181.122 202.194C183.102 200.739 183.331 200.811 185.704 200.021C181.958 189.567 189.243 179.666 193.497 168.428C195.66 163.489 198.063 158.437 199.624 153.303C202.564 144.047 208.599 134.184 212.19 124.589L212.532 123.649L214.831 122.727C215.485 121.064 215.7 121.139 215.538 119.535C214.623 110.505 221.072 100.146 224.599 90.159C225.456 88.839 228.594 81.2989 229.421 79.4069C234.73 65.6619 236.352 53.289 251.057 44.918Z" fill="url(#paint0_linear_404_136)"/>
<path d="M716.248 626.616C715.319 668.857 715.938 713.253 715.938 755.667L715.928 986.907L715.958 1061.92V1061.92C715.966 1063.76 716.047 1067.25 716.129 1071.52C716.211 1075.79 716.295 1080.86 716.307 1085.88C716.319 1090.9 716.259 1095.86 716.056 1099.92C715.954 1101.95 715.817 1103.74 715.636 1105.21C715.453 1106.68 715.23 1107.78 714.973 1108.42C706.137 1130.68 698.016 1147.34 689.995 1158.63C681.969 1169.92 674.11 1175.73 665.821 1176.47C657.526 1177.2 648.618 1172.86 638.452 1163.4C628.613 1154.25 617.675 1140.36 605.072 1121.88L603.847 1120.08C598.256 1111.82 589.769 1101.8 581.378 1091.3C572.971 1080.78 564.648 1069.76 559.319 1059.45L559.179 1059.18L558.874 1059.18C550.37 1059.17 536.88 1062.06 523.301 1065.4C509.683 1068.75 495.962 1072.57 486.887 1074.48C409.454 1090.23 332.279 1107.22 255.39 1125.44L247.95 1127.21L176.417 1143.42H176.414C171.224 1144.64 165.26 1146.42 158.996 1148.15C152.722 1149.89 146.127 1151.57 139.629 1152.6C126.609 1154.66 114.118 1154.06 105.373 1146.11C100.282 1141.48 97.33 1136.87 95.8655 1132.23C94.4007 1127.6 94.411 1122.89 95.3049 1118.05C96.2 1113.2 97.9778 1108.24 100.032 1103.09C102.081 1097.95 104.413 1092.61 106.378 1087.07C119.189 1051.04 132.974 1015.36 147.719 980.08L147.721 980.077C151.13 971.765 153.595 964.648 156.198 957.517C158.76 950.501 161.46 943.458 165.334 935.21L166.269 935.545C165.507 957.045 181.974 969.447 199.257 978.411L199.366 978.468L199.49 978.467C217.898 978.376 234.043 976.356 250.046 974.569C266.055 972.782 281.928 971.228 299.844 972.056L300.036 972.065L300.185 971.943C302.321 970.186 303.733 968.944 304.959 967.524C306.187 966.103 307.217 964.52 308.613 962.096L308.628 962.069L308.64 962.041C309.938 958.955 311.445 956.903 313.315 954.062L313.323 954.049L316.066 949.589L316.104 949.527L316.122 949.458C316.722 947.242 316.394 944.153 315.523 940.742C314.646 937.31 313.197 933.475 311.479 929.722C308.051 922.239 303.501 914.984 300.166 911.9C299.45 911.237 298.467 910.587 297.355 909.93C296.24 909.272 294.96 908.586 293.649 907.862C291.056 906.43 288.313 904.833 286.19 902.89C282.98 884.956 282.01 876.272 283.091 867.572C284.18 858.811 287.342 850.041 292.483 831.823L292.493 831.786L292.498 831.747C292.65 830.503 293.201 828.613 293.845 826.659C294.49 824.701 295.195 822.774 295.664 821.387L295.666 821.383C297.739 815.056 299.692 808.68 301.529 802.284C303.951 796.013 306.08 789.239 308.198 782.854L308.213 782.805L308.22 782.755C308.271 782.32 308.454 781.62 308.731 780.75C309.004 779.89 309.358 778.897 309.732 777.891C310.109 776.877 310.5 775.869 310.85 774.973L311.722 772.734C313.76 768.006 318.043 763.583 322.979 759.487C327.924 755.383 333.428 751.68 337.899 748.327L337.917 748.313L337.934 748.299C340.061 746.381 342.57 744.536 344.882 742.739C346.04 742.059 348.084 740.467 350.096 738.838C351.118 738.01 352.143 737.164 353.055 736.409C353.968 735.653 354.766 734.991 355.339 734.525L355.379 734.492L355.412 734.452C355.62 734.196 356.154 733.694 356.981 732.986C357.794 732.29 358.859 731.421 360.096 730.441C362.57 728.481 365.725 726.082 368.926 723.743C372.128 721.403 375.37 719.127 378.018 717.406C379.342 716.545 380.512 715.828 381.45 715.312C381.92 715.054 382.325 714.85 382.659 714.705C382.889 714.605 383.072 714.539 383.209 714.501C385.908 716.312 386.745 718.379 388.547 721.44L388.559 721.462L388.573 721.48C395.842 731.499 402.98 741.607 409.986 751.814C411.564 778.378 412.178 806.812 415.374 833.217C415.769 836.479 417.637 839.886 419.527 843.211C421.442 846.581 423.387 849.877 424.112 853.039C424.472 854.609 424.518 856.805 424.434 859.333C424.349 861.859 424.139 864.634 424 867.392C423.863 870.131 423.799 872.832 424.021 875.135C424.24 877.414 424.747 879.411 425.841 880.648L425.93 880.749L426.057 880.791L429.06 881.797C432.45 886.956 434.502 888.604 437.191 889.508C438.492 889.945 439.973 890.214 441.74 890.655C443.5 891.095 445.633 891.726 448.381 892.895L452.23 899.36C451.271 903.647 450.095 907.637 449.039 911.717C447.971 915.844 447.039 920.032 446.627 924.602C446.454 926.521 446.971 928.625 447.912 930.685C448.856 932.751 450.241 934.806 451.847 936.64C453.453 938.475 455.29 940.101 457.149 941.302C459.001 942.5 460.91 943.297 462.652 943.426C474.299 944.287 487.243 943.737 499.04 943.697L499.039 943.696L585.963 943.597L586.47 943.596L586.463 943.09C586.385 937.657 585.612 928.403 584.772 923.098C582.125 905.781 572.816 890.176 558.826 879.618H558.825C558.183 879.125 555.324 877.211 552.621 875.392C551.26 874.476 549.931 873.579 548.926 872.886C548.423 872.54 548.003 872.247 547.702 872.029C547.551 871.92 547.434 871.832 547.352 871.767C547.314 871.737 547.287 871.715 547.27 871.7C531.257 849.238 518.553 811.712 515.524 784.691L515.52 784.657L515.512 784.625L515.156 783.202C513.873 778.004 512.81 773.001 511.772 767.844L510.64 762.14C509.199 754.15 507.89 748.909 507.603 743.78C507.318 738.694 508.042 733.729 510.715 726.378C512.483 722.166 514.311 717.975 516.198 713.813L516.202 713.802C520.053 704.704 522.883 697.534 526.131 688.181L526.142 688.149L526.149 688.116C526.39 686.919 526.561 685.957 526.757 685.122C526.951 684.294 527.161 683.637 527.463 683.07C528.048 681.972 529.027 681.123 531.193 680.121C540.495 677.903 550.17 675.188 559.434 672.737C565.224 671.994 578.255 668.154 591.702 664.049C605.214 659.923 619.185 655.518 626.862 653.633L626.885 653.627L626.908 653.618L645.337 647.109L645.338 647.11C666.978 639.726 695.282 627.957 716.092 618.305L716.248 626.616Z" fill="white" stroke="#33ACFD"/>
<path d="M645.177 646.637C652.255 646.557 653.288 646.257 659.548 649.227L650.616 648.907L649.885 650.077C651.363 652.347 651.31 652.297 653.378 654.057C647.855 653.297 633.693 653.497 626.742 653.147L645.177 646.637Z" fill="#EEEEEE"/>
<path d="M251.199 45.4133C259.003 45.1759 269.341 44.4526 276.827 45.7454C278.691 46.0674 280.729 47.1153 282.868 48.552C285.001 49.9848 287.184 51.7696 289.342 53.5266C291.489 55.2753 293.616 56.9999 295.605 58.2727C297.579 59.5356 299.507 60.4146 301.246 60.3625C301.735 60.3479 302.463 60.4779 303.399 60.7522C304.325 61.0234 305.416 61.4238 306.614 61.9192C309.01 62.9097 311.807 64.27 314.528 65.7073C317.249 67.1442 319.885 68.6538 321.955 69.9417C322.991 70.5857 323.881 71.1717 324.567 71.6633C325.149 72.0794 325.556 72.4096 325.788 72.6389L325.755 75.26L325.751 75.6018L326.068 75.7297C327.642 76.3634 328.431 76.6094 329.217 76.6926C329.603 76.7335 329.979 76.7339 330.423 76.7317C330.87 76.7295 331.404 76.7234 332.135 76.7473C338.257 76.9498 342.955 80.5193 347.791 84.2961C352.581 88.0373 357.509 91.9877 363.969 92.5237C364.627 92.5784 365.508 92.8571 366.59 93.342C367.663 93.8231 368.896 94.4891 370.246 95.2854C372.948 96.8789 376.079 98.968 379.288 101.082C382.49 103.192 385.766 105.324 388.736 106.985C391.687 108.634 394.407 109.861 396.478 110.094C396.633 110.112 396.864 110.177 397.157 110.292C397.443 110.405 397.762 110.553 398.085 110.717C398.731 111.045 399.37 111.422 399.763 111.661L399.781 111.672L399.801 111.682C404.082 113.809 419.656 122.645 434.531 130.995C441.962 135.167 449.214 139.214 454.778 142.232C457.56 143.74 459.925 144.994 461.681 145.878C462.274 146.177 462.802 146.433 463.253 146.645L459.452 147.254L459.439 147.256C403.488 157.672 363.872 164.6 311.451 193.585C275.498 213.465 248.919 245.252 227.829 281.191C206.741 317.127 191.121 357.252 177.106 393.833C170.204 411.85 165.764 437.383 162.487 463.309C159.211 489.225 157.086 515.641 154.84 535.333L154.838 535.363C152.919 570.035 138.861 620.161 119.479 649.506C116.443 649.507 111.579 649.508 107.294 648.695C105.086 648.275 103.071 647.646 101.55 646.716C100.083 645.819 99.1112 644.664 98.8223 643.166C99.6225 641.35 100.041 640.443 100.56 639.596C101.034 638.821 101.595 638.092 102.627 636.771L103.336 637.758L103.508 637.998L103.801 637.963L105.239 637.793L105.532 637.759L105.644 637.486C106.498 635.391 106.582 632.614 106.583 630.162C106.583 628.916 106.561 627.757 106.596 626.756C106.631 625.743 106.723 624.979 106.914 624.504C107.936 621.966 109.45 619.008 111.036 615.992C112.617 612.987 114.271 609.922 115.551 607.202L115.55 607.201C118.085 601.928 120.217 596.829 122.475 591.456L122.492 591.414L122.502 591.369L122.867 589.698C124.817 584.014 132.519 568.927 135.47 563.238L135.479 563.219L135.487 563.199C137.484 558.404 139.654 554.047 141.853 549.709C144.049 545.375 146.275 541.054 148.372 536.354C148.97 535.013 148.706 533.638 148.205 532.408C147.711 531.196 146.927 529.996 146.401 529.051L146.32 528.906L146.167 528.837C145.769 528.66 145.289 528.301 144.741 527.761C144.198 527.226 143.611 526.538 142.997 525.735C141.769 524.128 140.451 522.09 139.164 519.961C137.878 517.834 136.628 515.628 135.533 513.684C134.442 511.746 133.499 510.058 132.834 508.989L132.831 508.986L101.563 459.604L27.7803 342.674C19.4823 329.236 9.39243 315.507 2.56348 301.24L1.91309 299.858C-0.668491 293.477 0.602192 286.668 3.19922 280.665C7.41934 270.912 13.7586 266.257 21.4131 263.602C25.2558 262.269 29.4343 261.439 33.8604 260.729C38.2668 260.022 42.9583 259.43 47.7266 258.579L47.7256 258.578L123.599 245.366L123.598 245.365C129.439 244.366 134.445 243.619 138.769 242.99C143.09 242.361 146.739 241.849 149.854 241.328C156.075 240.288 160.261 239.195 163.536 236.962C166.823 234.721 169.135 231.373 171.719 225.971C174.288 220.599 177.164 213.104 181.529 202.516C182.44 201.851 182.938 201.547 183.466 201.317C184.04 201.066 184.643 200.901 185.862 200.495L186.348 200.334L186.175 199.852C184.359 194.784 185.203 189.829 187.07 184.69C188.005 182.118 189.188 179.518 190.412 176.843C191.632 174.178 192.89 171.44 193.96 168.615C196.112 163.702 198.531 158.614 200.102 153.448C201.559 148.86 203.788 144.113 206.113 139.29C208.434 134.477 210.853 129.588 212.658 124.764L212.66 124.76L212.926 124.029L215.017 123.191L215.217 123.111L215.296 122.91C215.456 122.505 215.588 122.205 215.698 121.951C215.806 121.703 215.902 121.479 215.97 121.25C216.077 120.886 216.107 120.535 216.08 120.037L216.035 119.485C215.59 115.095 216.934 110.342 218.868 105.388C219.833 102.915 220.937 100.413 222.025 97.8909C223.105 95.3887 224.169 92.8698 225.054 90.3704C225.292 89.9865 225.649 89.2656 226.051 88.3987C226.481 87.4713 226.981 86.341 227.479 85.1965C228.487 82.8817 229.457 80.5729 229.879 79.6077L229.884 79.5969L229.888 79.5872C235.228 65.7621 236.791 53.6698 251.199 45.4133Z" fill="white" stroke="#33ACFD"/>
<path d="M193.497 168.428C195.66 163.489 198.063 158.437 199.624 153.303C199.914 156.564 200.155 160.691 200.638 163.851L199.451 168.387C196.816 169.761 197.188 169.17 193.497 168.428Z" fill="#EEEEEE"/>
<path d="M229.421 79.407C230.576 81.924 231.824 84.263 232.412 86.957C231.723 92.015 232.135 91.429 227.14 93.621C222.863 101.443 233.922 104.271 218.817 109.843C215.162 115.568 220.059 119.288 214.831 122.727C215.485 121.064 215.7 121.139 215.538 119.535C214.623 110.505 221.072 100.146 224.599 90.159C225.456 88.839 228.594 81.299 229.421 79.407Z" fill="#E7E7E6"/>
<path d="M229.421 79.407C230.576 81.924 231.824 84.263 232.412 86.957C230.287 91.003 231.805 89.987 228.448 91.141L224.599 90.159C225.456 88.839 228.594 81.299 229.421 79.407Z" fill="#EEEEEE"/>
<path d="M400.023 111.234C408.614 115.502 462.403 146.629 465.136 146.85L459.531 147.748C449.846 138.646 449.007 141.222 436.969 138.306C434.743 137.767 434.529 135.832 433.826 133.889L434.745 132.159C424.737 124.896 407.167 119.308 400.023 111.234Z" fill="#E7E7E6"/>
<path d="M135.026 563.007C137.042 566.921 137.197 567.084 137.485 571.384C134.955 576.877 130.822 576.415 130.128 577.784C127.439 583.081 126.918 584.685 122.388 589.554C124.343 583.84 132.082 568.684 135.026 563.007Z" fill="#E7E7E6"/>
<path d="M115.098 606.99C117.628 601.728 119.755 596.64 122.014 591.263C122.068 596.256 122.961 602.123 121.068 606.146C118.899 607.552 117.76 607.131 115.098 606.99Z" fill="#EEEEEE"/>
<path d="M193.724 492.867C192.842 532.115 193.958 568.928 195.379 608.122C194.947 607.111 194.412 605.966 193.797 604.737C192.344 601.831 190.448 598.425 188.471 595.119C186.494 591.814 184.429 588.602 182.637 586.084C181.741 584.826 180.908 583.734 180.186 582.889C179.476 582.06 178.833 581.42 178.315 581.117L177.743 580.782L177.578 581.425C176.827 584.352 176.127 587.292 175.477 590.243C174.465 590.504 173.955 590.627 173.467 590.794C172.926 590.98 172.404 591.225 171.247 591.763L171.015 591.87L170.967 592.121C170.642 593.808 170.351 595.486 170.114 597.182C170.084 597.026 170.054 596.862 170.024 596.692C169.782 595.307 169.556 593.514 169.335 591.626C169.114 589.745 168.897 587.77 168.672 586.045C168.459 584.409 168.233 582.962 167.982 582.014C168.09 581.624 168.152 581.358 168.194 581.177C168.218 581.074 168.233 581.014 168.247 580.972C168.254 580.949 168.26 580.939 168.262 580.935C168.259 580.939 168.265 580.92 168.444 580.802C168.516 580.754 168.606 580.695 168.718 580.621L169.584 582.835L170.545 582.58L170.28 580.782L170.842 580.48L171.111 580.334L171.104 580.028L171.046 577.677L171.044 577.606L171.022 577.537L170.98 577.352C170.948 577.136 170.943 576.829 170.979 576.422C171.024 575.894 171.132 575.251 171.29 574.519C171.606 573.056 172.115 571.282 172.688 569.455C173.26 567.63 173.893 565.763 174.457 564.113C175.02 562.468 175.518 561.03 175.812 560.079C181.427 541.985 186.046 523.618 190.8 505.303L190.806 505.281L190.81 505.259C191.695 499.927 192.42 497.087 193.724 492.867Z" fill="white" stroke="#33ACFD"/>
<path d="M882.358 942.527C883.338 935.847 880.188 932.407 880.288 925.807L881.208 925.857C887.318 935.257 888.888 948.887 899.918 950.747C905.738 951.727 913.928 952.547 919.928 953.277C918.678 957.547 919.478 957.317 916.668 959.747C912.038 959.527 908.208 954.757 906.068 955.167C901.568 956.047 901.438 958.467 895.358 955.277C888.138 951.487 881.908 959.337 873.748 961.467C867.808 957.927 876.898 954.567 860.368 958.727C857.508 959.427 854.668 960.227 851.858 961.127C851.528 964.787 858.908 968.247 853.138 971.997C841.258 979.727 825.528 975.337 812.758 972.737C811.518 972.487 810.648 974.017 809.788 975.087C806.208 973.327 799.668 969.457 796.118 969.727L792.778 971.997C790.298 970.797 788.728 969.387 786.578 967.697C786.938 965.557 786.878 965.697 788.228 963.987C810.158 979.717 863.158 955.767 882.358 942.527Z" fill="#E7E7E6"/>
<path d="M882.358 942.527C886.728 943.507 885.588 942.647 888.518 945.417L890.388 951.377C887.468 950.907 884.758 950.947 882.838 948.947C881.968 945.717 882.048 945.887 882.358 942.527Z" fill="#EEEEEE"/>
<path d="M136.078 644.757C136.528 646.403 136.742 647.569 136.846 648.756C136.964 650.11 136.945 651.49 136.966 653.662L133.188 654.02L132.969 654.04L132.836 654.214C132.561 654.575 132.351 655.165 132.173 655.871C131.989 656.599 131.824 657.524 131.673 658.613C131.371 660.79 131.123 663.663 130.918 667.009C130.508 673.703 130.266 682.329 130.106 691.154C129.788 708.826 129.8 727.269 129.464 732.756C129.308 735.306 129.644 738.583 130.057 742.164C130.471 745.763 130.966 749.692 131.15 753.603C131.516 761.351 130.643 768.824 125.707 773.401L123.009 772.528L122.539 769.266C122.46 768.531 122.444 768.044 122.438 767.698C122.432 767.382 122.438 767.09 122.382 766.853C122.312 766.558 122.16 766.352 121.954 766.132C121.767 765.932 121.459 765.645 121.048 765.234L120.892 765.077L120.67 765.088C118.148 765.208 117.263 765.255 114.763 764.941L113.888 764.823C118.401 760.227 122.271 756.447 126.08 751.014L126.181 750.872L126.17 750.698C125.081 731.73 125.521 712.727 125.188 693.808C124.976 681.792 124.633 674.337 125.945 667.353C127.212 660.615 130.028 654.295 136.078 644.757Z" fill="white" stroke="#33ACFD"/>
<path d="M125.671 750.727C126.05 754.317 124.035 764.937 123.352 769.137L122.044 769.337C121.715 766.287 122.425 767.317 120.694 765.587C118.162 765.707 117.244 765.757 114.701 765.437L112.831 765.187C117.66 760.247 121.696 756.397 125.671 750.727Z" fill="#EEEEEE"/>
<path d="M961.688 891.737C957.328 868.437 962.198 851.027 975.078 832.137C975.918 835.257 977.868 841.037 978.168 843.827C972.388 848.947 975.748 869.667 969.668 874.137C963.548 873.337 964.128 866.247 964.168 861.487L963.768 860.987C963.018 870.607 962.588 882.517 961.688 891.737Z" fill="#DBDBD9"/>
<path d="M979.858 825.147L982.468 821.117C984.528 826.977 984.768 825.987 991.168 826.157C989.818 834.857 989.208 838.037 981.438 842.507L978.168 843.827C977.868 841.037 975.918 835.257 975.078 832.137L979.858 825.147Z" fill="#DBDBD9"/>
<path d="M157.336 605.913C169.382 609.139 161.276 620.172 155.211 625.097C155.129 628.227 155.483 630.687 153.713 633.377C154.049 635.247 154.209 634.737 153.801 636.427C153.625 631.587 153.67 627.337 152.675 622.584C152.322 624.567 152.531 624.427 151.672 626.167L149.937 624.717L150.016 619.336C150.862 617.564 152.393 615.136 153.422 613.375C153.914 612.706 156.785 606.983 157.336 605.913Z" fill="#DBDBD9"/>
<path d="M153.422 613.375C155.797 618.31 155.604 619.587 155.211 625.097C155.129 628.227 155.483 630.687 153.713 633.377C154.049 635.247 154.209 634.737 153.801 636.427C153.625 631.587 153.67 627.337 152.675 622.584C152.322 624.567 152.531 624.427 151.672 626.167L149.937 624.717L150.016 619.336C150.862 617.564 152.393 615.136 153.422 613.375Z" fill="#EEEEEE"/>
<path d="M150.016 619.336L149.937 624.717C146.926 627.247 144.5 632.947 144.104 636.887C145.763 638.697 147.761 638.387 150.859 638.917C148.388 644.327 143.385 652.377 137.47 654.117C137.413 649.277 137.596 648.067 136.254 643.547C139.432 640.787 147.459 624.097 150.016 619.336Z" fill="#DBDBD9"/>
<path d="M999.398 792.037C1004.84 797.327 1005.3 790.597 1007.3 799.417C1008.04 802.707 1005.03 806.607 1003.07 809.247C1000.7 810.627 999.348 810.267 996.598 810.127C997.048 805.067 996.998 803.287 995.458 798.537L999.398 792.037Z" fill="#EEEEEE"/>
<path d="M995.458 798.537C996.998 803.287 997.048 805.067 996.598 810.127C990.718 813.957 991.378 819.447 991.168 826.157C984.768 825.987 984.528 826.977 982.468 821.117C987.978 812.707 991.398 807.707 995.458 798.537Z" fill="#E7E7E6"/>
<path d="M173.888 904.627C176.579 919.237 175.576 922.817 166.781 935.197L165.075 934.587C167.012 929.827 174.418 909.177 173.888 904.627Z" fill="#E7E7E6"/>
<path d="M765.778 945.817C771.958 947.857 774.418 950.337 778.858 955.097L777.118 959.047C774.308 958.387 771.598 954.987 769.408 952.737C767.448 952.347 766.858 952.317 764.908 952.307H763.068C764.008 950.157 764.908 947.997 765.778 945.817Z" fill="#E7E7E6"/>
<path d="M854.338 755.607C857.738 760.797 860.638 765.407 863.748 770.777C868.028 775.027 870.318 776.227 875.988 778.507C875.068 796.337 878.338 794.307 880.408 807.667C882.158 818.907 855.828 842.427 847.818 854.647C853.368 865.757 860.248 881.967 867.518 891.287C864.448 890.557 856.848 888.887 854.408 887.477C844.028 881.477 831.498 868.877 825.388 858.807C826.908 850.157 828.458 843.427 830.638 834.887L832.788 827.877C834.258 823.477 835.588 818.117 836.848 813.577L837.518 810.337C839.548 804.587 841.168 799.407 842.908 793.567C846.388 780.737 850.358 768.277 854.338 755.607Z" fill="#EEEEEE"/>
<path d="M854.338 755.607C857.738 760.797 860.638 765.407 863.748 770.777C853.928 777.717 859.038 785.687 854.958 795.257C853.558 796.247 852.178 797.267 850.828 798.317C850.328 796.247 850.478 796.837 849.348 794.937C847.208 794.447 845.058 793.987 842.908 793.567C846.388 780.737 850.358 768.277 854.338 755.607Z" fill="#E7E7E6"/>
<path d="M842.908 793.567C845.058 793.987 847.208 794.447 849.348 794.937C850.478 796.837 850.328 796.247 850.828 798.317C850.528 802.487 850.758 806.247 848.648 809.687L846.558 810.347C843.698 810.517 840.428 810.387 837.518 810.337C839.548 804.587 841.168 799.407 842.908 793.567Z" fill="#C0C0C0"/>
<path d="M837.518 810.337C840.428 810.387 843.698 810.517 846.558 810.347L844.308 811.787C845.548 818.897 847.388 818.187 844.078 824.767C839.568 827.227 837.368 825.337 832.788 827.877C834.258 823.477 835.588 818.117 836.848 813.577L837.518 810.337Z" fill="#E7E7E6"/>
<path d="M830.638 834.887C832.558 845.087 834.898 844.487 834.798 856.627C831.788 857.307 828.338 858.007 825.388 858.807C826.908 850.157 828.458 843.427 830.638 834.887Z" fill="#E7E7E6"/>
<path d="M757.668 104.08C788.398 83.907 841.908 57.029 878.458 54.762C915.898 52.441 977.328 78.032 1010.8 95.114C1050.03 115.139 1048.91 116.503 1093.16 119.332C1111.36 133.378 1119.31 173.389 1133.22 195.123C1149.17 220.026 1169.7 235.74 1185.93 259.627C1196.74 276.102 1207.95 293.091 1215.7 311.277C1227.55 339.117 1235.77 368.719 1246.06 397.116C1256.88 426.985 1276.23 456.399 1275.14 489.624L1276.74 494.034L1277.59 493.708C1278.62 487.485 1278.19 481.444 1278.52 475.093L1278.72 476.289C1279.72 482.137 1284.86 492.955 1281.37 497.115C1276.55 502.856 1284.53 508.411 1284.33 512.901L1281.52 513.58C1277.8 519.824 1282.86 522.469 1283.02 528.327L1279.28 529.1C1278.5 530.886 1278.27 533.919 1277.53 536.243C1262.74 529.995 1209.05 485.742 1189.42 478.617C1186.49 477.92 1180.63 481.786 1179.04 483.54C1171.37 492.017 1192.06 503.259 1197.61 507.904L1198.3 508.486C1226.19 527.545 1255 545.226 1284.63 561.465C1288.18 562.807 1294.64 565.662 1297.93 567.581C1295.86 568.649 1296.33 568.253 1293.69 568.326C1292.87 570.256 1292.81 570.464 1292.24 572.416C1290.57 570.432 1290.51 569.746 1289.52 567.298C1288.48 569.456 1287.92 572.078 1287.31 574.401C1284.77 584.016 1291.13 618.809 1284.05 623.767C1283.67 624.027 1283.28 624.267 1282.9 624.517C1282.5 631.047 1290.28 635.317 1281.81 639.617C1282.28 650.247 1284.38 647.687 1279.16 655.877L1278.12 655.367C1277.98 649.697 1278.17 634.607 1276.71 630.407L1276.25 630.247L1275.24 633.077C1274.16 651.007 1271.31 667.517 1268.84 685.227L1269.27 686.967C1270.64 692.347 1273.73 697.547 1273.03 702.977C1271.96 711.207 1272.95 722.417 1271.5 730.217C1270.95 738.947 1272.74 746.777 1262.91 747.927C1262.73 743.027 1263.01 733.337 1261.15 729.367C1257.69 741.147 1255.25 750.227 1250.16 761.467C1254.11 764.677 1256.59 761.277 1256.87 766.757C1257.15 772.027 1254.55 778.327 1249.8 780.597L1247.53 780.037C1246.79 777.317 1246.14 774.347 1245.02 771.817L1244.37 774.727C1244.7 784.167 1240.21 784.327 1241.32 794.917C1241.32 800.847 1236 807.217 1231.34 802.547L1230.45 801.427C1225.39 801.307 1221.36 813.337 1213.95 799.027L1210.82 798.087C1190.51 798.747 1174 796.377 1155.08 788.847C1148.28 786.137 1142.84 781.987 1135.3 782.017C1132.21 781.227 1129.37 775.297 1126.96 773.557C1104.48 757.337 1109.56 735.097 1116.56 712.677C1121.59 696.567 1127.62 682.257 1133.03 666.757C1139.84 669.727 1173.21 684.067 1175.49 689.207C1174.65 693.667 1172.3 696.527 1169.81 700.397C1169.12 701.287 1167.74 702.917 1167.26 703.837C1165.9 706.827 1163.88 710.927 1162.8 713.907C1163.11 722.627 1163.65 726.747 1162.27 735.307C1167.97 737.597 1173.73 739.767 1179.52 741.817C1185.32 739.397 1189.77 737.697 1195.12 734.367C1194.78 717.377 1198.72 696.277 1198.66 677.537C1198.48 656.497 1200.5 626.307 1196.11 606.091C1191.11 583.01 1179.26 572.205 1178.73 546.278C1178.48 534.096 1162.02 492.548 1153.58 483.585C1152.96 485.366 1152.62 486.35 1151.87 488.097C1147.15 484.431 1143.34 485.597 1139.84 489.87L1139.09 495.04C1135.17 500.035 1132.96 496.965 1129.57 504.54L1128.57 504.705C1128.27 502.394 1128.33 503.123 1128.75 500.749C1125.79 499.558 1124.56 502.068 1120.24 500.829C1110.9 490.744 1102.01 474.98 1091.92 465.411L1091.5 466.446C1089.87 470.603 1089.73 470.926 1089.31 475.268L1087.54 469.809C1078.93 467.717 1077.56 468.492 1071.6 474.755C1057.34 474.402 1056.29 477.883 1045.12 479.05C1042.72 475.099 1043.68 472.66 1041.34 471.838C1038.68 473.861 1038.12 475.15 1036.36 477.939C1034.23 479.31 1033.65 478.975 1031.01 479.007L1029.66 480.59L1030.1 481.768C1033.58 482.972 1035.02 482.665 1036.23 485.057C1034.34 494.714 1027.11 504.216 1018.57 509.013C1007.81 506.29 986.228 506.417 975.068 508.244C968.528 513.047 969.888 514.197 961.548 513.819C962.788 509.439 963.488 505.805 964.338 501.376C964.368 497.217 964.998 498.112 962.988 495.347C931.038 484.005 897.888 456.761 870.318 437.1C842.058 416.94 813.918 400.764 782.668 385.821C779.548 384.332 772.968 380.204 771.308 377.203C746.128 331.553 715.368 289.396 692.568 242.331C686.908 230.638 679.698 219.975 674.838 207.896C658.838 167.48 695.208 144.527 723.788 125.663C730.118 121.428 744.888 113.986 747.948 107.169L747.318 105.617C743.498 105.319 739.938 105.169 736.108 105.04C742.818 103.796 750.768 104.079 757.668 104.08Z" fill="#33ACFD"/>
<path d="M1025.14 473.167C1036.74 466.229 1080.19 456.853 1091.92 465.411L1091.5 466.446C1089.87 470.603 1089.73 470.926 1089.31 475.268L1087.54 469.809C1078.93 467.717 1077.56 468.492 1071.6 474.755C1057.34 474.402 1056.29 477.883 1045.12 479.05C1042.72 475.099 1043.68 472.66 1041.34 471.838C1038.68 473.861 1038.12 475.15 1036.36 477.939C1034.23 479.31 1033.65 478.975 1031.01 479.007L1029.66 480.59L1030.1 481.768C1033.58 482.972 1035.02 482.665 1036.23 485.057C1034.34 494.714 1027.11 504.216 1018.57 509.013C1007.81 506.29 986.228 506.417 975.068 508.244C968.528 513.047 969.888 514.197 961.548 513.819C962.788 509.439 963.488 505.805 964.338 501.376C979.938 496.115 1003.27 503.067 1025.82 497.692C1024.66 491.888 1021.77 479.787 1023.01 474.311L1025.14 473.167Z" fill="#DBDBD9"/>
<path d="M1025.82 497.692C1024.66 491.888 1021.77 479.787 1023.01 474.311L1025.14 473.167C1027.31 474.419 1027.72 474.034 1028.09 475.919C1029.19 481.564 1028.47 490.099 1028.03 495.779C1026.72 497.755 1027.58 497.292 1025.82 497.692Z" fill="#EEEEEE"/>
<path d="M1284.63 561.465C1288.18 562.807 1294.64 565.662 1297.93 567.581C1295.86 568.649 1296.33 568.253 1293.69 568.326C1292.87 570.256 1292.81 570.464 1292.24 572.416C1290.57 570.432 1290.51 569.746 1289.52 567.298C1288.48 569.456 1287.92 572.078 1287.31 574.401C1284.77 584.016 1291.13 618.809 1284.05 623.767C1283.67 624.027 1283.28 624.267 1282.9 624.517C1282.5 631.047 1290.28 635.317 1281.81 639.617C1282.28 650.247 1284.38 647.687 1279.16 655.877L1278.12 655.367C1277.98 649.697 1278.17 634.607 1276.71 630.407L1276.25 630.247L1275.24 633.077C1275.35 625.287 1277.16 612.983 1277.96 604.858C1279.45 589.787 1279.66 579.429 1278.71 564.377C1280.78 562.443 1281.91 562.361 1284.63 561.465Z" fill="#DBDBD9"/>
<path d="M1198.3 508.486C1226.19 527.545 1255 545.226 1284.63 561.465C1281.91 562.361 1280.78 562.443 1278.71 564.377L1277.22 561.955C1258.09 558.461 1224.08 530.299 1205.24 520.475C1200.69 518.102 1195.88 513.889 1198.3 508.486Z" fill="#0991EE"/>
<path d="M1137.76 471.752L1150.05 480.88L1153.58 483.585C1152.96 485.366 1152.62 486.35 1151.87 488.097C1147.15 484.431 1143.34 485.597 1139.84 489.87L1139.09 495.04C1135.17 500.035 1132.96 496.965 1129.57 504.54L1128.57 504.705C1128.27 502.394 1128.33 503.123 1128.75 500.749C1125.79 499.558 1124.56 502.068 1120.24 500.829C1127.36 494.676 1133.38 480.579 1137.76 471.752Z" fill="#EEEEEE"/>
<path d="M1139.09 495.04C1138.68 491.838 1137.21 487.171 1136.52 483.417C1138.25 479.873 1136.96 480.773 1139.78 479.534L1140.59 479.992C1144.78 482.308 1145.4 482.668 1150.05 480.88L1153.58 483.585C1152.96 485.366 1152.62 486.35 1151.87 488.097C1147.15 484.431 1143.34 485.597 1139.84 489.87L1139.09 495.04Z" fill="#C0C0C0"/>
<path d="M1265.22 715.377C1274.09 718.057 1271.13 721.247 1271.5 730.217C1270.95 738.947 1272.74 746.777 1262.91 747.927C1262.73 743.027 1263.01 733.337 1261.15 729.367L1264.43 719.237L1265.22 715.377Z" fill="#DBDBD9"/>
<path d="M1264.43 719.237C1264.72 728.437 1265.18 738.977 1262.91 747.927C1262.73 743.027 1263.01 733.337 1261.15 729.367L1264.43 719.237Z" fill="#B1B0B0"/>
<path d="M1233.87 789.277L1233.83 794.317L1241.32 794.917C1241.32 800.847 1236 807.217 1231.34 802.547L1230.45 801.427C1225.39 801.307 1221.36 813.337 1213.95 799.027L1210.82 798.087C1222.31 797.217 1223.87 795.357 1233.87 789.277Z" fill="#DBDBD9"/>
<path d="M1233.83 794.317L1241.32 794.917C1241.32 800.847 1236 807.217 1231.34 802.547C1233.39 798.827 1233.36 798.617 1233.83 794.317Z" fill="#E7E7E6"/>
<path d="M1278.52 475.093L1278.72 476.289C1279.72 482.137 1284.86 492.955 1281.37 497.115C1276.55 502.856 1284.53 508.411 1284.33 512.901L1281.52 513.58C1277.8 519.824 1282.86 522.469 1283.02 528.327L1279.28 529.1C1279.76 526.648 1275.59 494.944 1275.14 489.624L1276.74 494.034L1277.59 493.708C1278.62 487.485 1278.19 481.444 1278.52 475.093Z" fill="#C0C0C0"/>
<path d="M1265.22 715.377C1266.34 704.497 1267.18 696.127 1268.84 685.227L1269.27 686.967C1270.64 692.347 1273.73 697.547 1273.03 702.977C1271.96 711.207 1272.95 722.417 1271.5 730.217C1271.13 721.247 1274.09 718.057 1265.22 715.377Z" fill="#E7E7E6"/>
<path d="M1245.02 771.817C1246.98 768.497 1248.7 765.037 1250.16 761.467C1254.11 764.677 1256.59 761.277 1256.87 766.757C1257.15 772.027 1254.55 778.327 1249.8 780.597L1247.53 780.037C1246.79 777.317 1246.14 774.347 1245.02 771.817Z" fill="#EEEEEE"/>
<path d="M1161.5 715.867L1162.8 713.907C1163.11 722.627 1163.65 726.747 1162.27 735.307C1158.91 734.767 1157.29 734.007 1155.33 731.417C1156.11 726.697 1159.37 720.407 1161.5 715.867Z" fill="#E7E7E6"/>
<path d="M1233.87 789.277C1239.02 785.157 1241.3 780.377 1244.37 774.727C1244.7 784.167 1240.21 784.327 1241.32 794.917L1233.83 794.317L1233.87 789.277Z" fill="#EEEEEE"/>
<path d="M1155.33 731.417C1155.25 725.167 1150.95 720.927 1154.74 716.417C1157.4 716.007 1158.83 715.977 1161.5 715.867C1159.37 720.407 1156.11 726.697 1155.33 731.417Z" fill="#0991EE"/>
<path d="M609.411 44.3669C613.68 45.3729 612.871 44.5279 615.457 47.2349C618.846 56.6199 612.276 60.5049 619.324 67.4259C621.274 67.6589 623.226 67.8779 625.179 68.0839C622.379 69.3299 622.508 69.2859 619.456 69.6049C614.385 66.0169 611.271 51.2519 609.411 44.3669Z" fill="#EEEEEE"/>
<path d="M697.328 15.311C690.368 10.296 690.278 8.021 693.668 0C697.608 6.696 697.078 7.473 697.328 15.311Z" fill="#EEEEEE"/>
<path d="M60.1279 571.901C63.9469 574.071 63.1999 572.978 65.2169 576.373C65.3349 581.336 62.6639 584.074 59.6519 588.087C59.4869 582.167 59.2129 577.825 60.1279 571.901Z" fill="#EEEEEE"/>
<defs>
<linearGradient id="paint0_linear_404_136" x1="408.993" y1="1058.68" x2="781.909" y2="120.399" gradientUnits="userSpaceOnUse">
<stop stop-color="#0073CC"/>
<stop offset="1" stop-color="#33ACFD"/>
</linearGradient>
</defs>
</svg>
